<?xml version="1.0" standalone="no"?>
<!DOCTYPE svg PUBLIC "-//W3C//DTD SVG 1.1//EN" "http://www.w3.org/Graphics/SVG/1.1/DTD/svg11.dtd">
<svg t="1675323236242" class="icon" viewBox="0 0 1024 1024" version="1.1" xmlns="http://www.w3.org/2000/svg" p-id="10369" xmlns:xlink="http://www.w3.org/1999/xlink" width="16" height="16">
  <path d="M452.266667 529.066667a42.666667 42.666667 0 0 1 42.666666 42.666666V896a42.666667 42.666667 0 0 1-42.666666 42.666667H128a42.666667 42.666667 0 0 1-42.666667-42.666667V571.733333a42.666667 42.666667 0 0 1 42.666667-42.666666h324.266667z m443.733333 0a42.666667 42.666667 0 0 1 42.666667 42.666666V896a42.666667 42.666667 0 0 1-42.666667 42.666667H571.733333a42.666667 42.666667 0 0 1-42.666666-42.666667V571.733333a42.666667 42.666667 0 0 1 42.666666-42.666666H896zM452.266667 85.333333a42.666667 42.666667 0 0 1 42.666666 42.666667v324.266667a42.666667 42.666667 0 0 1-42.666666 42.666666H128a42.666667 42.666667 0 0 1-42.666667-42.666666V128a42.666667 42.666667 0 0 1 42.666667-42.666667h324.266667zM896 85.333333a42.666667 42.666667 0 0 1 42.666667 42.666667v324.266667a42.666667 42.666667 0 0 1-42.666667 42.666666H571.733333a42.666667 42.666667 0 0 1-42.666666-42.666666V128a42.666667 42.666667 0 0 1 42.666666-42.666667H896z" >
</path></svg>
