<?xml version="1.0" standalone="no"?><!DOCTYPE svg>
<svg class="icon" viewBox="0 0 1024 1024" version="1.1" xmlns="http://www.w3.org/2000/svg" xmlns:xlink="http://www.w3.org/1999/xlink" width="16" height="16">
  <path d="M853.333333 512h-170.666666c-46.933333 0-85.333333 38.4-85.333334 85.333333v256c0 46.933333 38.4 85.333333 85.333334 85.333334h170.666666c46.933333 0 85.333333-38.4 85.333334-85.333334v-256c0-46.933333-38.4-85.333333-85.333334-85.333333zM341.333333 85.333333H170.666667c-46.933333 0-85.333333 38.4-85.333334 85.333334v256c0 46.933333 38.4 85.333333 85.333334 85.333333h170.666666c46.933333 0 85.333333-38.4 85.333334-85.333333V170.666667c0-46.933333-38.4-85.333333-85.333334-85.333334zM853.333333 85.333333h-170.666666c-46.933333 0-85.333333 38.4-85.333334 85.333334v85.333333c0 46.933333 38.4 85.333333 85.333334 85.333333h170.666666c46.933333 0 85.333333-38.4 85.333334-85.333333V170.666667c0-46.933333-38.4-85.333333-85.333334-85.333334zM341.333333 682.666667H170.666667c-46.933333 0-85.333333 38.4-85.333334 85.333333v85.333333c0 46.933333 38.4 85.333333 85.333334 85.333334h170.666666c46.933333 0 85.333333-38.4 85.333334-85.333334v-85.333333c0-46.933333-38.4-85.333333-85.333334-85.333333z">
  </path>
</svg>
