<?xml version="1.0" standalone="no"?><!DOCTYPE svg PUBLIC "-//W3C//DTD SVG 1.1//EN" "http://www.w3.org/Graphics/SVG/1.1/DTD/svg11.dtd"><svg t="1673320044719" class="icon" viewBox="0 0 1054 1024" version="1.1" xmlns="http://www.w3.org/2000/svg" p-id="5323" xmlns:xlink="http://www.w3.org/1999/xlink" width="32.9375" height="32"><path d="M102.279399 509.951873a31.871992 31.871992 0 0 0 19.071995-40.95999A403.583899 403.583899 0 0 1 94.983401 330.239917c0-99.839975 33.279992-266.239933 255.999936-266.239933 76.799981 0 105.343974 27.135993 137.983965 58.623985A412.543897 412.543897 0 0 0 523.399294 153.599962a32.127992 32.127992 0 0 0 38.39999 0 400.6399 400.6399 0 0 0 35.327991-31.359993C629.127267 91.007977 657.15926 63.999984 734.983241 63.999984c230.399942 0 255.999936 186.239953 255.999936 266.239933a403.071899 403.071899 0 0 1-26.367994 138.751966 32.127992 32.127992 0 0 0 18.943996 41.087989 32.639992 32.639992 0 0 0 11.007997 1.92 31.871992 31.871992 0 0 0 30.079992-20.991995 467.839883 467.839883 0 0 0 30.335993-160.76796c0-203.775949-122.623969-330.239917-319.99992-330.239917C631.175267 0 587.527278 42.367989 552.327286 76.799981l-9.599997 9.215997-9.343998-9.215997c-35.455991-34.175991-79.48798-76.799981-182.399954-76.799981-200.44795 0-319.99992 123.519969-319.99992 330.239917a470.655882 470.655882 0 0 0 30.207992 160.76796 32.255992 32.255992 0 0 0 16.639996 17.919996 31.743992 31.743992 0 0 0 24.447994 1.024zM806.791223 715.007821a1641.47159 1641.47159 0 0 1-263.807934 237.951941 1633.535592 1633.535592 0 0 1-263.935934-237.951941 31.999992 31.999992 0 0 0-54.399987 10.623998 31.999992 31.999992 0 0 0 6.143999 31.487992 1659.903585 1659.903585 0 0 0 294.399926 261.503934 32.127992 32.127992 0 0 0 35.583991 0 1663.999584 1663.999584 0 0 0 294.399927-261.631934 31.999992 31.999992 0 0 0-48.255988-41.98399z" ></path><path d="M993.927176 574.463856H783.879229L702.599249 276.479931a29.055993 29.055993 0 0 0-28.031993-21.375995 29.055993 29.055993 0 0 0-27.903993 22.015995l-92.159977 367.743908-84.607979-253.823937A29.183993 29.183993 0 0 0 443.527314 371.199907a27.519993 27.519993 0 0 0-27.903993 17.663996l-79.487981 185.599953H30.983417a29.055993 29.055993 0 1 0 0 57.983986H355.207336A28.671993 28.671993 0 0 0 381.831329 614.399846l57.087986-132.991966 92.031977 276.351931a28.671993 28.671993 0 0 0 27.519993 19.839995h1.024A29.055993 29.055993 0 0 0 586.631278 755.199811l89.599977-356.735911L734.087241 610.559847a28.927993 28.927993 0 0 0 28.031993 21.375995H993.927176a29.055993 29.055993 0 1 0 0-57.983985z" ></path></svg>
