<?xml version="1.0" standalone="no"?><!DOCTYPE svg PUBLIC "-//W3C//DTD SVG 1.1//EN" "http://www.w3.org/Graphics/SVG/1.1/DTD/svg11.dtd"><svg t="1673320035605" class="icon" viewBox="0 0 1024 1024" version="1.1" xmlns="http://www.w3.org/2000/svg" p-id="5167" xmlns:xlink="http://www.w3.org/1999/xlink" width="32" height="32"><path d="M99.795 892.791c-18.875 0-34.244-15.252-34.353-34.16-0.084-14.463-1.938-355.265 9.974-441.007 12.794-92.111 64.554-152.796 149.701-175.471 33.631-8.959 81.104-22.952 116.245-38.681l14.076-104.048c2.442-18.825 19.604-32.071 38.497-29.655 18.825 2.441 32.096 19.68 29.655 38.497l-13.354 102.881c-3.171 24.47-18.431 45.057-40.82 55.065-39.277 17.583-90.533 32.733-126.606 42.348-57.9 15.419-90.391 54.192-99.325 118.52-11.24 80.895-9.345 427.66-9.32 431.15 0.109 18.977-15.184 34.454-34.159 34.563h-0.211v-0.002z m824.399 0h-0.201c-18.977-0.11-34.278-15.587-34.16-34.563 0.017-3.489 1.912-350.272-9.329-431.143-8.926-64.335-41.407-103.108-99.309-118.527-36.072-9.614-87.329-24.764-126.639-42.355-22.349-9.992-37.607-30.569-40.805-55.04l-13.354-102.899c-2.441-18.816 10.83-36.056 29.646-38.497 18.875-2.416 36.057 10.821 38.505 29.655l13.355 102.882c35.871 16.896 83.336 30.888 116.975 39.848 85.148 22.675 136.908 83.36 149.71 175.48 11.912 85.734 10.05 426.536 9.966 440.999-0.116 18.909-15.468 34.16-34.36 34.16z m-686.409 61.726a34.172 34.172 0 0 1-14.37-3.171c-17.23-7.953-24.756-28.363-16.803-45.595 29.404-63.723 25.15-161.555 18.699-196.402-3.465-18.657 8.867-36.584 27.523-40.041 18.599-3.507 36.584 8.859 40.041 27.524 6.385 34.428 15.688 152.008-23.866 237.709-5.797 12.569-18.23 19.976-31.224 19.976z m548.41 0c-12.985 0-25.419-7.408-31.224-19.974-39.528-85.727-30.234-203.29-23.858-237.709 3.456-18.649 21.257-31.073 40.049-27.524 18.657 3.457 30.988 21.383 27.533 40.041-6.459 34.84-10.722 132.672 18.69 196.402 7.936 17.239 0.42 37.649-16.812 45.595a34.223 34.223 0 0 1-14.378 3.169z" fill="#75757F" p-id="5168"></path><path d="M331.254 757.251c-42.439 0-76.499-14.077-101.229-41.836-50.652-56.869-46.919-155.716-36.584-244.916 2.181-18.851 19.16-32.281 38.085-30.184 18.859 2.189 32.364 19.236 30.184 38.085-4.748 40.963-17.356 149.776 19.631 191.303 7.197 8.079 20.209 18.824 49.913 18.824 18.977 0 34.361 15.386 34.361 34.361-0.001 18.977-15.385 34.363-34.361 34.363z m361.489 0c-18.977 0-34.361-15.386-34.361-34.362 0-18.976 15.385-34.361 34.361-34.361 29.714 0 42.717-10.745 49.914-18.833 36.995-41.525 24.378-150.33 19.63-191.284-2.198-18.851 11.325-35.905 30.167-38.095 18.875-2.106 35.904 11.325 38.085 30.175 10.352 89.2 14.094 188.047-36.559 244.915-24.73 27.768-58.79 41.845-101.237 41.845zM550.361 651.093H471V479.287c0-18.978 15.022-34.361 34-34.361h14c18.978 0 31.362 15.384 31.362 34.361l-0.001 171.806z" fill="#75757F" p-id="5169"></path></svg>