<?xml version="1.0" standalone="no"?><!DOCTYPE svg PUBLIC "-//W3C//DTD SVG 1.1//EN" "http://www.w3.org/Graphics/SVG/1.1/DTD/svg11.dtd"><svg t="1675309900035" class="icon" viewBox="0 0 1024 1024" version="1.1" xmlns="http://www.w3.org/2000/svg" p-id="5726" xmlns:xlink="http://www.w3.org/1999/xlink" width="16" height="16"><path d="M734.3104 941.9776H208.7936c-75.0592 0-135.936-60.8768-135.936-135.936V225.6384c0-75.0592 60.8768-135.936 135.936-135.936h525.5168c75.0592 0 135.936 60.8768 135.936 135.936v580.4032c0 75.0592-60.8768 135.936-135.936 135.936z" fill="#A5ADF6" p-id="5727"></path><path d="M638.8736 386.8672H225.792c-22.6304 0-40.96-18.3296-40.96-40.96s18.3296-40.96 40.96-40.96h413.0816c22.6304 0 40.96 18.3296 40.96 40.96s-18.3296 40.96-40.96 40.96zM481.9968 619.52H225.792c-22.6304 0-40.96-18.3296-40.96-40.96s18.3296-40.96 40.96-40.96h256.2048c22.6304 0 40.96 18.3296 40.96 40.96s-18.3296 40.96-40.96 40.96z" fill="#FFFFFF" p-id="5728"></path><path d="M636.7744 889.1392l-105.5744 10.7008c-13.2096 1.3312-23.1936-8.6528-21.8624-21.8624l10.7008-105.5744c1.2288-11.9296 6.912-23.6032 15.9232-32.6144l283.3408-283.3408c19.5584-19.5584 49.2032-21.6576 66.1504-4.7104l71.936 71.936c16.9984 16.9984 14.8992 46.592-4.7104 66.1504l-283.3408 283.3408c-9.0112 9.0624-20.6336 14.7968-32.5632 15.9744z" fill="#A5ADF6" p-id="5729"></path><path d="M870.2464 442.4192c-16.3328-5.4272-36.4032-0.512-50.944 14.0288l-283.3408 283.3408c-9.0112 9.0112-14.6944 20.6848-15.9232 32.6144l-10.7008 105.5744c-1.3312 13.2096 8.6528 23.1936 21.8624 21.8624l105.5744-10.7008c11.9296-1.2288 23.6032-6.912 32.6144-15.9232l200.8576-200.8576V442.4192z" fill="#635DF7" p-id="5730"></path></svg>