<?xml version="1.0" standalone="no"?><!DOCTYPE svg PUBLIC "-//W3C//DTD SVG 1.1//EN" "http://www.w3.org/Graphics/SVG/1.1/DTD/svg11.dtd"><svg t="1675310503112" class="icon" viewBox="0 0 1024 1024" version="1.1" xmlns="http://www.w3.org/2000/svg" p-id="6213" xmlns:xlink="http://www.w3.org/1999/xlink" width="16" height="16"><path d="M503.7056 511.232m-445.7984 0a445.7984 445.7984 0 1 0 891.5968 0 445.7984 445.7984 0 1 0-891.5968 0Z" fill="#80B7F9" p-id="6214"></path><path d="M747.264 748.4416m-202.2912 0a202.2912 202.2912 0 1 0 404.5824 0 202.2912 202.2912 0 1 0-404.5824 0Z" fill="#80B7F9" p-id="6215"></path><path d="M920.4224 643.8912c-35.4304-58.5728-99.7376-97.7408-173.2096-97.7408-111.7184 0-202.2912 90.5728-202.2912 202.2912 0 75.3664 41.216 141.0048 102.3488 175.8208 129.6384-45.056 231.4752-149.248 273.152-280.3712z" fill="#3E8BF8" p-id="6216"></path><path d="M848.9984 709.7344h-56.7296v-56.7296c0-22.6304-18.3296-40.96-40.96-40.96s-40.96 18.3296-40.96 40.96v56.7296h-56.7296c-22.6304 0-40.96 18.3296-40.96 40.96s18.3296 40.96 40.96 40.96h56.7296v56.7296c0 22.6304 18.3296 40.96 40.96 40.96s40.96-18.3296 40.96-40.96v-56.7296h56.7296c22.6304 0 40.96-18.3296 40.96-40.96s-18.3296-40.96-40.96-40.96zM621.568 549.5296h-87.9616v-39.3216h87.9616c22.6304 0 40.96-18.3296 40.96-40.96s-18.3296-40.96-40.96-40.96h-39.6288l60.1088-61.2864c15.8208-16.128 15.5648-42.0864-0.5632-57.9072s-42.0864-15.5648-57.9072 0.5632l-91.136 92.928-87.9104-90.5216c-15.7696-16.2304-41.728-16.5888-57.9072-0.8192a40.9344 40.9344 0 0 0-0.8192 57.9072l57.4976 59.136h-39.5776c-22.6304 0-40.96 18.3296-40.96 40.96s18.3296 40.96 40.96 40.96h88.0128v39.3216h-88.064c-22.6304 0-40.96 18.3296-40.96 40.96s18.3296 40.96 40.96 40.96h88.0128v48.384c0 22.6304 18.3296 40.96 40.96 40.96s40.96-18.3296 40.96-40.96v-48.384h87.9616c22.6304 0 40.96-18.3296 40.96-40.96s-18.3296-40.96-40.96-40.96z" fill="#FFFFFF" p-id="6217"></path></svg>