<?xml version="1.0" standalone="no"?><!DOCTYPE svg PUBLIC "-//W3C//DTD SVG 1.1//EN" "http://www.w3.org/Graphics/SVG/1.1/DTD/svg11.dtd">
<svg  viewBox="0 0 1024 1024" version="1.1" xmlns="http://www.w3.org/2000/svg"  width="16" height="16">
  <path d="M550.916865 12.16152c-24.32304-14.593824-53.510689-14.593824-77.83373 0L27.971496 369.710214c-17.026128 12.16152-26.755344 34.052257-26.755344 55.942993V972.921615h4.864608c9.729216 24.32304 36.484561 48.646081 68.104513 48.646081h243.230404c31.619952 0 58.375297-24.32304 68.104513-48.646081h4.864608V688.342043c0-63.239905 46.213777-119.182898 109.453682-126.47981 72.969121-7.296912 133.776722 51.078385 133.776722 121.615202v291.876484h4.864608c9.729216 24.32304 36.484561 48.646081 68.104513 48.646081h243.230404c31.619952 0 58.375297-19.458432 68.104513-48.646081h4.864608V425.653207c0-21.890736-9.729216-43.781473-26.755344-55.942993L550.916865 12.16152z"></path>
</svg>
