<?xml version="1.0" standalone="no"?><!DOCTYPE svg PUBLIC "-//W3C//DTD SVG 1.1//EN" "http://www.w3.org/Graphics/SVG/1.1/DTD/svg11.dtd"><svg t="1675310532414" class="icon" viewBox="0 0 1024 1024" version="1.1" xmlns="http://www.w3.org/2000/svg" p-id="6535" xmlns:xlink="http://www.w3.org/1999/xlink" width="16" height="16"><path d="M514.1504 290.6112m-146.8928 0a146.8928 146.8928 0 1 0 293.7856 0 146.8928 146.8928 0 1 0-293.7856 0Z" fill="#80B7F9" p-id="6536"></path><path d="M239.1552 285.44m-118.272 0a118.272 118.272 0 1 0 236.544 0 118.272 118.272 0 1 0-236.544 0Z" fill="#80B7F9" p-id="6537"></path><path d="M790.1696 285.44m-118.272 0a118.272 118.272 0 1 0 236.544 0 118.272 118.272 0 1 0-236.544 0Z" fill="#80B7F9" p-id="6538"></path><path d="M997.6832 624.64c0-94.5152-54.528-175.3088-131.584-207.9232L790.1184 511.488l-75.9808-94.7712c-25.344 10.752-48.2304 26.7264-67.584 46.6944-9.0624-5.12-18.432-9.7792-28.0576-13.8752l-104.3456 130.1504-104.3456-130.2016a272.6912 272.6912 0 0 0-27.4432 13.5168c-19.2512-19.7632-42.0352-35.6352-67.2768-46.336L239.1552 511.4368 163.1744 416.6656C86.1696 449.3312 31.5904 530.0736 31.5904 624.64c0 10.8032 0.768 21.4528 2.1504 31.8464 52.9408 48.64 120.9344 78.7968 195.3792 81.3056 0.1024 13.9264 1.1264 27.648 2.8672 41.1136C307.968 848.6912 406.4256 890.88 514.0992 890.88s206.1824-42.24 282.1632-112.0256c1.792-13.4144 2.7648-27.136 2.8672-41.0624 74.8544-2.2528 143.2064-32.4608 196.4032-81.3056 1.4336-10.4448 2.1504-21.0432 2.1504-31.8464z" fill="#80B7F9" p-id="6539"></path><path d="M799.232 735.1296c0-118.016-61.9008-220.416-152.6272-271.7696-39.424 40.6528-64 97.8432-64 161.28 0 10.8032 0.768 21.4528 2.1504 31.8464 55.296 50.7904 127.0272 81.5104 205.4144 81.5104 3.0208 0 6.0416-0.1536 9.0624-0.2048-0.0512-0.9216 0-1.792 0-2.6624zM229.12 735.1296c0 0.8704 0.0512 1.7408 0.0512 2.6624 3.328 0.1024 6.656 0.256 10.0352 0.256 78.3872 0 150.1184-30.72 205.4144-81.5616 1.3824-10.3936 2.0992-21.0432 2.0992-31.8464 0-63.5904-24.7296-120.9344-64.3072-161.5872-91.136 51.2-153.2928 153.7536-153.2928 272.0768z" fill="#3E8BF8" p-id="6540"></path></svg>