<?xml version="1.0" standalone="no"?><!DOCTYPE svg PUBLIC "-//W3C//DTD SVG 1.1//EN" "http://www.w3.org/Graphics/SVG/1.1/DTD/svg11.dtd"><svg t="1675309833327" class="icon" viewBox="0 0 1024 1024" version="1.1" xmlns="http://www.w3.org/2000/svg" p-id="4741" xmlns:xlink="http://www.w3.org/1999/xlink" width="16" height="16"><path d="M716.3904 911.2064h-482.816c-73.5232 0-133.12-59.5968-133.12-133.12V273.3568c0-73.5232 59.5968-133.12 133.12-133.12h503.296c73.5232 0 133.12 59.5968 133.12 133.12v484.3008c0 84.7872-68.7616 153.5488-153.6 153.5488z" fill="#FFAC3E" p-id="4742"></path><path d="M698.4192 735.3856m-234.752 0a234.752 234.752 0 1 0 469.504 0 234.752 234.752 0 1 0-469.504 0Z" fill="#FFAC3E" p-id="4743"></path><path d="M869.9904 763.5456V574.976c-42.8544-45.824-103.8336-74.5472-171.52-74.5472-129.6896 0-234.752 105.1136-234.752 234.752 0 70.0928 30.7712 132.9664 79.4624 175.9744h179.1488c81.5616 0.0512 147.6608-66.048 147.6608-147.6096z" fill="#FF7C0E" p-id="4744"></path><path d="M311.6544 236.4416c-21.76 0-39.3728-17.6128-39.3728-39.3728V103.6288c0-21.76 17.6128-39.3728 39.3728-39.3728s39.3728 17.6128 39.3728 39.3728V197.12c0 21.7088-17.6128 39.3216-39.3728 39.3216zM662.3744 236.4416c-21.76 0-39.3728-17.6128-39.3728-39.3728V103.6288c0-21.76 17.6128-39.3728 39.3728-39.3728s39.3728 17.6128 39.3728 39.3728V197.12c0 21.7088-17.6128 39.3216-39.3728 39.3216z" fill="#FFAC3E" p-id="4745"></path><path d="M272.2816 140.2368V197.12c0 21.76 17.6128 39.3728 39.3728 39.3728s39.3728-17.6128 39.3728-39.3728V140.2368H272.2816zM623.0016 140.2368V197.12c0 21.76 17.6128 39.3728 39.3728 39.3728s39.3728-17.6128 39.3728-39.3728V140.2368h-78.7456z" fill="#FF7C0E" p-id="4746"></path><path d="M760.2176 377.1904H210.2272c-22.6304 0-40.96-18.3296-40.96-40.96s18.3296-40.96 40.96-40.96h549.9904c22.6304 0 40.96 18.3296 40.96 40.96s-18.3296 40.96-40.96 40.96zM276.6336 565.6576H210.2272c-22.6304 0-40.96-18.3296-40.96-40.96s18.3296-40.96 40.96-40.96h66.4064c22.6304 0 40.96 18.3296 40.96 40.96s-18.3296 40.96-40.96 40.96zM466.7904 565.6576H400.384c-22.6304 0-40.96-18.3296-40.96-40.96s18.3296-40.96 40.96-40.96h66.4064c22.6304 0 40.96 18.3296 40.96 40.96s-18.3296 40.96-40.96 40.96zM701.6448 763.1872c-22.6304 0-40.96-18.3296-40.96-40.96v-106.0864c0-22.6304 18.3296-40.96 40.96-40.96s40.96 18.3296 40.96 40.96v106.0864c0 22.6304-18.3808 40.96-40.96 40.96zM701.6448 877.7216c-22.6304 0-40.96-18.3296-40.96-40.96s18.3296-41.1136 40.96-41.1136 40.96 18.176 40.96 40.8064v0.3072c0 22.5792-18.3808 40.96-40.96 40.96z" fill="#FFFFFF" p-id="4747"></path></svg>