<?xml version="1.0" standalone="no"?><!DOCTYPE svg PUBLIC "-//W3C//DTD SVG 1.1//EN" "http://www.w3.org/Graphics/SVG/1.1/DTD/svg11.dtd"><svg t="1675309906864" class="icon" viewBox="0 0 1024 1024" version="1.1" xmlns="http://www.w3.org/2000/svg" p-id="5889" xmlns:xlink="http://www.w3.org/1999/xlink" width="16" height="16"><path d="M824.5248 896H195.4816c-78.336 0-141.824-63.488-141.824-141.824V280.9344c0-78.336 63.488-141.824 141.824-141.824h629.0432c78.336 0 141.824 63.488 141.824 141.824v473.1904c0.0512 78.3872-63.488 141.8752-141.824 141.8752z" fill="#80B7F9" p-id="5890"></path><path d="M702.3616 416.2048m-110.7456 0a110.7456 110.7456 0 1 0 221.4912 0 110.7456 110.7456 0 1 0-221.4912 0Z" fill="#3E8BF8" p-id="5891"></path><path d="M842.0864 764.5696H562.688c-26.0096 0-44.8512-24.7808-37.9392-49.8688l31.5904-114.3296c5.632-23.6032 28.5696-40.3968 55.0912-40.3968h179.2c25.4464 0 47.7696 15.5136 54.4256 37.8368l34.7136 116.0704c7.5776 25.2928-11.3664 50.688-37.6832 50.688z" fill="#3E8BF8" p-id="5892"></path><path d="M459.7248 407.3472H219.6992c-22.6304 0-40.96-18.3296-40.96-40.96s18.3296-40.96 40.96-40.96h240.0256c22.6304 0 40.96 18.3296 40.96 40.96s-18.3808 40.96-40.96 40.96zM459.7248 570.624H219.6992c-22.6304 0-40.96-18.3296-40.96-40.96s18.3296-40.96 40.96-40.96h240.0256c22.6304 0 40.96 18.3296 40.96 40.96s-18.3808 40.96-40.96 40.96zM375.5008 733.8496H219.6992c-22.6304 0-40.96-18.3296-40.96-40.96s18.3296-40.96 40.96-40.96h155.8016c22.6304 0 40.96 18.3296 40.96 40.96s-18.3296 40.96-40.96 40.96z" fill="#FFFFFF" p-id="5893"></path></svg>