<?xml version="1.0" standalone="no"?><!DOCTYPE svg PUBLIC "-//W3C//DTD SVG 1.1//EN" "http://www.w3.org/Graphics/SVG/1.1/DTD/svg11.dtd"><svg t="1675309824111" class="icon" viewBox="0 0 1024 1024" version="1.1" xmlns="http://www.w3.org/2000/svg" p-id="4579" xmlns:xlink="http://www.w3.org/1999/xlink" width="16" height="16"><path d="M856.32 367.5136c30.8736-55.808 22.6816-127.4368-24.6784-174.7968s-118.9888-55.552-174.7968-24.6784c-17.6128-61.2864-74.0864-106.1888-141.056-106.1888s-123.4432 44.8512-141.056 106.1888c-55.808-30.8736-127.4368-22.6816-174.7968 24.6784S144.384 311.7056 175.2576 367.5136C113.9712 385.1264 69.12 441.6 69.12 508.5696s44.8512 123.4432 106.1888 141.056c-30.8736 55.808-22.6816 127.4368 24.6784 174.7968s118.9888 55.552 174.7968 24.6784c17.6128 61.2864 74.0864 106.1888 141.056 106.1888s123.4432-44.8512 141.056-106.1888c55.808 30.8736 127.4368 22.6816 174.7968-24.6784s55.552-118.9888 24.6784-174.7968c61.2864-17.6128 106.1888-74.0864 106.1888-141.056-0.0512-66.9696-44.9536-123.4432-106.24-141.056z" fill="#4BE2AC" p-id="4580"></path><path d="M723.4048 508.5696l108.288-108.288c9.984-9.984 18.176-21.0432 24.6784-32.768a147.6096 147.6096 0 0 0-40.6016-5.7344h-153.1392V208.64c0-14.08-2.048-27.6992-5.7344-40.6016a147.21024 147.21024 0 0 0-32.768 24.6784l-108.288 108.288-108.3392-108.288a147.21024 147.21024 0 0 0-32.768-24.6784 147.6096 147.6096 0 0 0-5.7344 40.6016v153.1392h-153.088c-14.08 0-27.6992 2.048-40.6016 5.7344 6.5024 11.7248 14.6944 22.784 24.6784 32.768L308.224 508.5696l-108.288 108.288a147.21024 147.21024 0 0 0-24.6784 32.768c12.9024 3.6864 26.5216 5.7344 40.6016 5.7344h153.1392v153.1392c0 14.08 2.048 27.6992 5.7344 40.6016 11.7248-6.5024 22.784-14.6944 32.768-24.6784l108.288-108.288 108.288 108.288c9.984 9.984 21.0432 18.176 32.768 24.6784a147.6096 147.6096 0 0 0 5.7344-40.6016V655.36h153.1392c14.08 0 27.6992-2.048 40.6016-5.7344a147.21024 147.21024 0 0 0-24.6784-32.768l-108.2368-108.288z" fill="#06CC76" p-id="4581"></path><path d="M515.7888 356.9152c-83.6096 0-151.6032 68.0448-151.6032 151.6544s68.0448 151.6544 151.6032 151.6544c83.6096 0 151.6544-68.0448 151.6544-151.6544s-68.0448-151.6544-151.6544-151.6544z m83.968 151.6544c0 46.2848-37.6832 83.968-83.968 83.968s-83.968-37.6832-83.968-83.968 37.6832-83.968 83.968-83.968 83.968 37.6832 83.968 83.968z" fill="#FFFFFF" p-id="4582"></path></svg>