<?xml version="1.0" standalone="no"?><!DOCTYPE svg PUBLIC "-//W3C//DTD SVG 1.1//EN" "http://www.w3.org/Graphics/SVG/1.1/DTD/svg11.dtd"><svg t="1671070167817" class="icon" viewBox="0 0 1024 1024" version="1.1" xmlns="http://www.w3.org/2000/svg" p-id="15662" xmlns:xlink="http://www.w3.org/1999/xlink" width="32" height="32"><path d="M515.64541977 994.99392216c-36.65303881 0-73.37235797-9.41181104-106.0485752-28.30171352L164.88975726 825.38248217c-65.41871483-37.77980492-106.0485752-108.16954672-106.0485752-183.66287618V359.10015305c0-75.55960983 40.62986037-145.88307127 106.0485752-183.66287619l244.77336767-141.30972647c65.41871483-37.77980492 146.67843559-37.77980492 212.09715041 0l244.70708731 141.30972647c65.41871483 37.77980492 106.0485752 108.16954672 106.0485752 183.66287619v282.61945294c0 75.55960983-40.62986037 145.88307127-106.0485752 183.66287618l-244.70708731 141.30972647a212.34901578 212.34901578 0 0 1-106.11485557 28.30171352z m0-909.69793423c-22.93300439 0-45.86600878 5.898952-66.2803595 17.69685599L204.65797296 244.30257038c-40.89498181 23.59580798-66.2803595 67.6059667-66.2803595 114.79758267v282.61945294c0 47.19161597 25.38537769 91.20177469 66.2803595 114.79758265l244.77336766 141.30972648a132.97165724 132.97165724 0 0 0 132.56071902 0l244.70708729-141.30972648c40.89498181-23.59580798 66.2803595-67.6059667 66.28035951-114.79758265V359.10015305c0-47.19161597-25.38537769-91.20177469-66.28035951-114.79758267l-244.70708729-141.30972646a132.87886474 132.87886474 0 0 0-66.34663987-17.69685599z m-86.16446735-16.76893096z" ></path><path d="M515.64541977 665.97821757c-91.26805504 0-165.56833805-74.30028301-165.56833804-165.56833805s74.30028301-165.56833805 165.56833804-165.56833806 165.56833805 74.30028301 165.56833804 165.56833806-74.23400265 165.56833805-165.56833804 165.56833805z m0-251.60024469c-47.45673741 0-86.03190665 38.57516923-86.03190663 86.03190664s38.57516923 86.03190665 86.03190663 86.03190664 86.03190665-38.57516923 86.03190664-86.03190664-38.57516923-86.03190665-86.03190664-86.03190664z"></path></svg>
