<svg viewBox="0 0 1727.02 1032" xmlns:xlink="http://www.w3.org/1999/xlink" xmlns="http://www.w3.org/2000/svg"><defs><style>.cls-1,.cls-11,.cls-15,.cls-2,.cls-9{isolation:isolate;}.cls-1,.cls-2{opacity:0.34;}.cls-1{fill:url(#未命名的渐变_11);}.cls-2{fill:url(#未命名的渐变_11-2);}.cls-3{fill:none;stroke:#5c75c9;stroke-linecap:round;stroke-miterlimit:10;stroke-width:6.14px;}.cls-4{fill:url(#未命名的渐变_16);}.cls-5{fill:url(#未命名的渐变_5);}.cls-6{fill:url(#未命名的渐变_11-3);}.cls-7{fill:url(#未命名的渐变_5-2);}.cls-8{fill:#fed4c4;}.cls-9{opacity:0.32;fill:url(#未命名的渐变_17);}.cls-10{fill:url(#未命名的渐变_16-2);}.cls-11{fill:#2e419b;opacity:0.85;}.cls-12{fill:url(#未命名的渐变_16-3);}.cls-13{fill:#fff;}.cls-14{fill:#fa8a68;}.cls-15{fill:#a1bff1;opacity:0.69;}.cls-16{fill:#2f3a87;}.cls-17{fill:url(#未命名的渐变_16-4);}.cls-18{fill:#5c74c6;}.cls-19{fill:#fcdacb;}.cls-20{fill:#fbab92;}.cls-21{fill:url(#未命名的渐变_10);}.cls-22{fill:url(#未命名的渐变_16-5);}.cls-23{fill:url(#未命名的渐变_14);}.cls-24{fill:#fd9271;}.cls-25{fill:#5c75c9;}.cls-26{fill:url(#未命名的渐变_14-2);}</style><linearGradient gradientUnits="userSpaceOnUse" gradientTransform="matrix(0.98, -0.21, -0.21, -0.98, 1862.98, 5108.71)" y2="5274.23" x2="-553.44" y1="4869.19" x1="-553.44" id="未命名的渐变_11"><stop stop-color="#d6e6fd" offset="0"></stop><stop stop-color="#d2e3fd" offset="1"></stop></linearGradient><linearGradient xlink:href="#未命名的渐变_11" gradientTransform="matrix(1, 0, 0, -1, 0, 4334)" y2="3761.02" x2="1628.91" y1="3366.32" x1="-8.31" id="未命名的渐变_11-2"></linearGradient><linearGradient gradientUnits="userSpaceOnUse" gradientTransform="matrix(1, 0, 0, -1, 0, 4334)" y2="4388.21" x2="1073.6" y1="3361.98" x1="1073.6" id="未命名的渐变_16"><stop stop-color="#5c75c9" offset="0"></stop><stop stop-color="#2e419b" offset="1"></stop></linearGradient><linearGradient gradientUnits="userSpaceOnUse" gradientTransform="matrix(1, 0, 0, -1, 0, 4334)" y2="3367.43" x2="1281.69" y1="3367.43" x1="1162.02" id="未命名的渐变_5"><stop stop-color="#373282" offset="0"></stop><stop stop-color="#2e419b" offset="1"></stop></linearGradient><linearGradient xlink:href="#未命名的渐变_11" gradientTransform="matrix(1, 0, 0, -1, 0, 4334)" y2="3657.52" x2="1055.31" y1="3657.52" x1="500.68" id="未命名的渐变_11-3"></linearGradient><linearGradient xlink:href="#未命名的渐变_5" y2="3969.29" x2="1152.8" y1="3969.29" x1="619.56" id="未命名的渐变_5-2"></linearGradient><linearGradient gradientUnits="userSpaceOnUse" gradientTransform="matrix(1, 0, 0, -1, 0, 4334)" y2="3868.08" x2="1542.7" y1="3503.87" x1="1542.7" id="未命名的渐变_17"><stop stop-color="#5c75c9" offset="0"></stop><stop stop-color="#d2e3fd" offset="1"></stop></linearGradient><linearGradient xlink:href="#未命名的渐变_16" y2="4042.26" x2="1492.51" y1="3403.43" x1="1456.22" id="未命名的渐变_16-2"></linearGradient><linearGradient xlink:href="#未命名的渐变_16" y2="3466.7" x2="1501.67" y1="4034.06" x1="1501.67" id="未命名的渐变_16-3"></linearGradient><linearGradient xlink:href="#未命名的渐变_16" y2="3591.95" x2="424.19" y1="3879.85" x1="136.28" id="未命名的渐变_16-4"></linearGradient><linearGradient gradientUnits="userSpaceOnUse" gradientTransform="matrix(1, 0, 0, -1, 0, 4334)" y2="3301.98" x2="677.63" y1="3831.05" x1="307.98" id="未命名的渐变_10"><stop stop-color="#fd9271" offset="0"></stop><stop stop-opacity="0" stop-color="#eb8b75" offset="1"></stop></linearGradient><linearGradient xlink:href="#未命名的渐变_16" y2="3640.63" x2="472.86" y1="3928.54" x1="184.95" id="未命名的渐变_16-5"></linearGradient><linearGradient gradientUnits="userSpaceOnUse" gradientTransform="matrix(-0.68, 0.73, 0.73, 0.68, -285.76, -14020.2)" y2="10762.11" x2="9319.99" y1="10762.11" x1="9251.28" id="未命名的渐变_14"><stop stop-color="#373282" offset="0"></stop><stop stop-color="#323a8f" offset="0.44"></stop><stop stop-color="#2e419b" offset="1"></stop></linearGradient><linearGradient xlink:href="#未命名的渐变_14" gradientTransform="matrix(-0.68, 0.73, 0.73, 0.68, -285.77, -14020.2)" y2="10677.46" x2="9407.83" y1="10677.46" x1="9339.12" id="未命名的渐变_14-2"></linearGradient></defs><g id="图层_2"><g id="图层_1-2"><g id="图层_2-2"><g id="Layer_1"><path d="M402.46,324.4c-27.29,61.71-257.53,74.67-320.54-38.76-23.23-41.89-26.64-106.17,5.19-138.15C141.27,93,287.8,141.83,361.3,229.41,380.76,252.61,415.75,294.31,402.46,324.4Z" class="cls-1"></path><path d="M0,1002.14C41,852.2,119.78,653.22,279,603.6c137.49-42.9,140.8,63,308.27,87.66C1029,756.34,1235.92,140.41,1477.3,236.93c153.72,61.45,247,265,184.6,493.27-35.64,130.31-105.62,220.95-151.43,271Z" class="cls-2"></path><line y2="1011.69" x2="1374.65" y1="1011.69" x1="151.5" class="cls-3"></line><line y2="1009.84" x2="1574.17" y1="1009.84" x1="1441.29" class="cls-3"></line><line y2="1009.84" x2="103.41" y1="1009.84" x1="51.54" class="cls-3"></line><path d="M1222.24,1028.64,925,1023.45V250.54l128.35-2.69a109.47,109.47,0,0,1,109.47,109.47V969.19A59.49,59.49,0,0,0,1222.24,1028.64Z" class="cls-4"></path><path d="M1281.69,904.5v64.69a59.45,59.45,0,0,1-59.45,59.45h0a60.92,60.92,0,0,1-42.8-17.42,59.15,59.15,0,0,1-17.42-42V904.5Z" class="cls-5"></path><path d="M500.68,326.87h554.63V969.66a56.44,56.44,0,0,1-56.45,56.44H557.13a56.44,56.44,0,0,1-56.45-56.44V326.87Z" class="cls-6"></path><rect height="83.88" width="533.24" y="322.77" x="523.44" class="cls-7"></rect><path d="M1051.75,408.76H523.55c-43.85,0-79.38-37.64-79.38-81.49a79.45,79.45,0,0,1,79.38-79.42h528.2a79.45,79.45,0,0,0-79.38,79.42C972.37,371.12,1007.9,408.76,1051.75,408.76Z" class="cls-8"></path><circle r="184.32" cy="637.1" cx="1542.7" class="cls-9"></circle><circle r="184.32" cy="639.43" cx="1472.76" class="cls-10"></circle><circle r="32.16" cy="646.69" cx="1480.56" class="cls-11"></circle><rect transform="translate(27.33 1257.44) rotate(-45)" height="9" width="120.25" y="591.23" x="1471.4" class="cls-11"></rect><path d="M1645.14,643.49A181.51,181.51,0,0,1,1491,822.84c101.3-10.08,175.25-100.36,165.17-201.66a184.32,184.32,0,0,0-309.89-115.84,181.5,181.5,0,0,1,298.88,138.15Z" class="cls-12"></path><rect transform="translate(-82.71 1215.58) rotate(-45)" height="16.91" width="124.21" y="699.17" x="1363.87" class="cls-11"></rect><rect transform="translate(-13.18 1186.77) rotate(-45)" height="79.56" width="16.62" y="569.51" x="1417.65" class="cls-11"></rect><circle r="32.16" cy="639.14" cx="1472.8" class="cls-13"></circle><path d="M1367.11,736.61l-.21-.2h0l87.83-87.83h0l12,12h0l-76.07,76.07A16.61,16.61,0,0,1,1367.11,736.61Z" class="cls-13"></path><path d="M1400.57,578.41h0a16.63,16.63,0,0,1,23.51,0l44.5,44.5h0l-11.75,11.76h0l-56.26-56.26Z" class="cls-13"></path><rect transform="translate(29.8 1251.45) rotate(-45)" height="9" width="120.25" y="585.25" x="1465.41" class="cls-13"></rect><circle r="140.98" cy="598.99" cx="768.05" class="cls-14"></circle><path d="M757.31,673.22a19.75,19.75,0,0,1-27.85,2.07,20.14,20.14,0,0,1-1.92-1.89l-42-47.59a33,33,0,0,1,3.63-46.57h0l53.36,62.4,69.47-82a33,33,0,0,1,46.55-3.86h0Z" class="cls-13"></path><rect height="36.48" width="218.55" y="904.5" x="705.07" class="cls-15"></rect><rect height="31.8" width="311.1" y="820.08" x="612.48" class="cls-15"></rect><path d="M646.09,1031a5.7,5.7,0,0,0,1.45-7.91L527,849.55a5.66,5.66,0,0,0-7.88-1.45h0a5.67,5.67,0,0,0-1.44,7.88l0,0L638,1029.55a5.68,5.68,0,0,0,7.88,1.45h.18Z" class="cls-16"></path><path d="M239.56,495.72a2.73,2.73,0,0,0-2.21-1.16,2.66,2.66,0,0,0-2.18,1.16l-21,30.71a2.77,2.77,0,0,0,0,3.05L359.34,738.92a2.66,2.66,0,0,0,.58.58l44.76,34.23a2.36,2.36,0,0,0,3.3.29v-.19a11.24,11.24,0,0,0,2.65-15.53l-24.75-36.12a11.34,11.34,0,0,0-13.29-4.1L244.1,532.71l12.09-8.35a2.65,2.65,0,0,0,.69-3.63Z" class="cls-17"></path><path d="M255.42,432.06a20.22,20.22,0,1,0-33.24,23.05L309.29,581a20.23,20.23,0,0,0,33.25-23Z" class="cls-18"></path><path d="M568.49,977.13l49.91,35.43a2.68,2.68,0,0,0,3,0l15.94-10.89a2.63,2.63,0,0,0,1.09-2.87l-15.79-59.16-.91.62-14.19,9.83Z" class="cls-19"></path><path d="M259.23,533.44l288,415.6a3.94,3.94,0,0,0,.32.76L564.31,974a2.72,2.72,0,0,0,.66.65l3.63,2.5,39.09-27.07,14.19-9.84.91-.62-1.13-4.21a3.21,3.21,0,0,0-.36-.83l-16.77-24.18a3,3,0,0,0-.58-.61L315.79,494.31a2.65,2.65,0,0,0-3.63-.69l-52.27,36.19A2.69,2.69,0,0,0,259.23,533.44Z" class="cls-20"></path><polygon points="300.18 505.16 605.37 945.52 607.58 950.06 621.77 940.22 620.43 935.07 315.1 494.82 300.18 505.16" class="cls-21"></polygon><path d="M235.82,495l52.24-36.21a2.65,2.65,0,0,1,3.68.67l21.94,31.65a2.69,2.69,0,0,1-.67,3.74h0L260.8,531.06a2.66,2.66,0,0,1-3.69-.67l-22-31.68A2.66,2.66,0,0,1,235.82,495Z" class="cls-22"></path><path d="M1342.81,104.18h0a68.71,68.71,0,0,1-97.08,3.66h0a68.71,68.71,0,0,1,97.1-3.68h0Z" class="cls-23"></path><path d="M1236.36,219h0a68.71,68.71,0,0,1-3.68-97.1h0A68.71,68.71,0,0,1,1236.36,219Z" class="cls-24"></path><path d="M1234,97.05h0a68.72,68.72,0,0,1-3.73-97h0A68.71,68.71,0,0,1,1234,97.05Z" class="cls-25"></path><path d="M1221,111h0a68.72,68.72,0,0,1-97.11,3.68h0A68.73,68.73,0,0,1,1221,111Z" class="cls-26"></path><path d="M847.94,18.27,851.57,25a49.41,49.41,0,0,0,19.67,19.71L878,48.36,871.24,52A49.67,49.67,0,0,0,851.57,71.7l-3.63,6.75-3.63-6.75A49.67,49.67,0,0,0,824.64,52l-6.75-3.63,6.75-3.63A49.41,49.41,0,0,0,844.31,25Z" class="cls-18"></path><path d="M188.27,847.23,191.9,854a49.41,49.41,0,0,0,19.71,19.67l6.75,3.63-6.75,3.63a49.33,49.33,0,0,0-19.71,19.71l-3.63,6.72-3.63-6.72a49.45,49.45,0,0,0-19.71-19.71l-6.75-3.63,6.75-3.63A49.54,49.54,0,0,0,184.64,854Z" class="cls-18"></path></g></g></g></g></svg>